<svg width="174" height="13" viewBox="0 0 174 13" fill="none" xmlns="http://www.w3.org/2000/svg">
<path d="M5.52079 0.527832V0.726214C4.92133 0.726214 4.41243 1.10142 4.41243 1.95532V7.48848C4.41243 10.6367 2.73049 11.8227 0.556909 12.1418L0.505157 11.9435C1.65233 11.5294 2.73049 10.4642 2.73049 7.57041V3.58551C2.73049 1.07985 2.71756 0.730525 1.69114 0.730525V0.532142H5.51648L5.52079 0.527832Z" fill="#000101"/>
<path d="M22.5213 9.91652H19.0928V9.71814C19.9726 9.71814 19.5585 8.62703 19.399 8.25183L18.972 7.1866H15.6642C15.4788 7.72137 14.7715 9.80008 16.7553 9.72245V9.92083H13.62V9.72245C14.0469 9.70951 14.379 9.72245 15.6081 6.61733L17.8895 0.536469H18.062C20.5159 6.41895 21.4087 8.69603 21.4087 8.69603C21.8486 9.76126 22.1548 9.69657 22.517 9.72245V9.92083L22.5213 9.91652ZM18.8944 6.9839L17.2383 2.82218L15.703 6.9839H18.8901H18.8944Z" fill="#000101"/>
<path d="M42.9504 9.71809V9.91647H39.2286V9.71809C39.7892 9.71809 40.186 9.32995 40.186 8.32941V1.10138L36.8135 10.0372H36.6151L32.8803 1.95529V6.56984C32.8803 7.34181 32.9882 9.71809 34.6529 9.71809V9.91647H30.7456V9.71809C32.5569 9.71809 32.6776 7.32887 32.6776 6.56984V1.63615C32.186 0.756365 31.5175 0.756363 31.1855 0.730487V0.532104H34.2L37.5337 7.69544L40.186 0.532104H42.8555V0.730487C42.282 0.730487 41.8291 1.04962 41.8291 1.90353V8.33372C41.8291 9.33426 42.3768 9.7224 42.9504 9.7224V9.71809Z" fill="#000101"/>
<path d="M55.4097 0.527832V0.726214C54.8361 0.726214 54.3704 1.01948 54.3704 1.84751V8.39414C54.3704 9.2998 54.8491 9.71381 55.4097 9.71381V9.91219H51.6879V9.71381C52.2615 9.71381 52.7272 9.2998 52.7272 8.39414V1.84751C52.7272 1.01948 52.2744 0.726214 51.6879 0.726214V0.527832H55.4097Z" fill="#000101"/>
<path d="M71.2372 7.07878V9.92083H64.1299V9.72245C64.6906 9.72245 64.876 9.13593 64.876 8.23027V2.16234C64.876 1.33431 64.7165 0.734851 64.1299 0.734851V0.536469H71.0647V3.00331H70.862C70.6378 0.74779 67.675 0.734851 67.1272 0.734851H66.5278V5.08202H67.1963C67.3817 5.08202 69.1024 5.08202 69.2103 3.72353H69.4087V6.65614H69.2103C69.1024 5.28472 67.3688 5.28472 67.1963 5.28472H66.5278V9.72676H67.0755C67.662 9.72676 70.6076 9.75264 71.0345 7.08741H71.2372V7.07878Z" fill="#000101"/>
<path d="M90.0275 8.36824C90.0275 9.45072 89.2296 9.9553 88.4922 10.0372C88.4922 10.0372 87.1725 10.158 86.6377 9.36878L85.8916 8.27767C85.3827 9.80004 82.6528 10.93 81.3159 9.07552C79.9833 7.25126 81.7299 5.78064 82.7822 5.16824L83.4507 4.76716L82.7434 3.70194C81.4884 1.96824 82.3294 0.29924 83.8216 0.0491058C84.7143 -0.110463 85.3439 0.131045 85.7536 0.596813C86.2755 1.20921 86.862 2.78334 84.835 4.22377L86.517 6.71649C87.0215 5.5952 87.703 5.34506 88.0523 5.26312C88.3326 5.19843 88.7078 5.22431 88.945 5.42269C89.2641 5.67714 89.3331 6.16878 89.0269 6.50085C88.7596 6.81999 88.2679 6.87606 87.9315 6.59573C87.772 6.4491 87.69 6.28954 87.6771 6.0739C87.6771 5.79358 86.9569 6.0049 86.6248 6.87174L87.6771 8.39412C88.0911 9.00651 88.7854 9.00651 88.7854 9.00651C89.2512 9.00651 89.7213 8.85989 89.8248 8.36824H90.0232H90.0275ZM85.745 8.07498L83.5714 4.93967L82.903 5.36662C82.1569 5.90139 81.635 7.22107 82.6744 8.51487C83.3946 9.40759 85.0895 9.4766 85.7407 8.07498H85.745ZM83.7612 2.62377L84.7229 4.03832C86.4695 2.89115 86.1633 1.4766 85.5768 0.743445C85.1887 0.355305 84.6323 0.182798 84.1493 0.355305C83.455 0.596814 83.1229 1.67498 83.7612 2.62377Z" fill="#000101"/>
<path d="M107.671 9.91652H104.242V9.71814C105.122 9.71814 104.708 8.62703 104.548 8.25183L104.121 7.1866H100.813C100.628 7.72137 99.9207 9.80008 101.905 9.72245V9.92083H98.7693V9.72245C99.1962 9.70951 99.5283 9.72245 100.757 6.61733L103.039 0.536469H103.211C105.665 6.41895 106.558 8.69603 106.558 8.69603C106.998 9.76126 107.304 9.69657 107.666 9.72245V9.92083L107.671 9.91652ZM104.044 6.9839L102.392 2.82218L100.857 6.9839H104.044Z" fill="#000101"/>
<path d="M126.409 0.527782V0.726164C124.434 0.713226 124.477 3.26201 124.477 3.87441V9.91646H123.903L118.155 2.59355V6.53964C118.155 7.1391 118.142 9.71376 119.94 9.71376V9.91214H115.994V9.71376C117.956 9.71376 117.956 7.1391 117.956 6.53964V2.37791L117.422 1.69651C116.568 0.631285 116.18 0.752039 115.835 0.72185V0.523468H118.702L124.279 7.55311V3.87441C124.279 3.26201 124.279 0.713226 122.493 0.726164V0.527782H126.413H126.409Z" fill="#000101"/>
<path d="M145.212 0.527782V0.726164C143.237 0.713226 143.28 3.26201 143.28 3.87441V9.91646H142.707L136.958 2.59355V6.53964C136.958 7.1391 136.945 9.71376 138.743 9.71376V9.91214H134.797V9.71376C136.76 9.71376 136.76 7.1391 136.76 6.53964V2.37791L136.225 1.69651C135.371 0.631285 134.983 0.752039 134.638 0.72185V0.523468H137.506L143.082 7.55311V3.87441C143.082 3.26201 143.082 0.713226 141.297 0.726164V0.527782H145.217H145.212Z" fill="#000101"/>
<path d="M157.667 0.527832V0.726214C157.094 0.726214 156.628 1.01948 156.628 1.84751V8.39414C156.628 9.2998 157.107 9.71381 157.667 9.71381V9.91219H153.945V9.71381C154.519 9.71381 154.985 9.2998 154.985 8.39414V1.84751C154.985 1.01948 154.532 0.726214 153.945 0.726214V0.527832H157.667Z" fill="#000101"/>
<path d="M173.495 7.07878V9.92083H166.388V9.72245C166.948 9.72245 167.134 9.13593 167.134 8.23027V2.16234C167.134 1.33431 166.974 0.734851 166.388 0.734851V0.536469H173.322V3.00331H173.12C172.895 0.74779 169.933 0.734851 169.385 0.734851H168.785V5.08202H169.454C169.639 5.08202 171.36 5.08202 171.468 3.72353H171.666V6.65614H171.468C171.36 5.28472 169.626 5.28472 169.454 5.28472H168.785V9.72676H169.333C169.92 9.72676 172.87 9.75264 173.292 7.08741H173.495V7.07878Z" fill="#000101"/>
</svg>
