<svg width="261" height="19" viewBox="0 0 261 19" fill="none" xmlns="http://www.w3.org/2000/svg">
<path d="M7.56449 0.796005V1.0952C6.66039 1.0952 5.89289 1.66107 5.89289 2.94892V11.2939C5.89289 16.0421 3.35621 17.8307 0.0780515 18.3121L0 18.0129C1.73014 17.3884 3.35621 15.7819 3.35621 11.4175V5.40755C3.35621 1.62855 3.3367 1.1017 1.78868 1.1017V0.802506H7.55799L7.56449 0.796005Z" fill="#FFFEFC"/>
<path d="M33.2044 14.9559H28.0335V14.6567C29.3604 14.6567 28.736 13.0111 28.4953 12.4452L27.8514 10.8387H22.8626C22.5829 11.6452 21.5162 14.7803 24.5082 14.6632V14.9624H19.7796V14.6632C20.4235 14.6437 20.9243 14.6632 22.778 9.98012L26.2188 0.809067H26.479C30.1799 9.68092 31.5263 13.1152 31.5263 13.1152C32.1897 14.7217 32.6515 14.6242 33.1979 14.6632V14.9624L33.2044 14.9559ZM27.7343 10.533L25.2367 4.25634L22.9211 10.533H27.7278H27.7343Z" fill="#FFFEFC"/>
<path d="M64.0152 14.6567V14.9559H58.402V14.6567C59.2476 14.6567 59.846 14.0713 59.846 12.5623V1.6611L54.7596 15.138H54.4604L48.8277 2.94895V9.90854C48.8277 11.0728 48.9903 14.6567 51.501 14.6567V14.9559H45.6081V14.6567C48.3399 14.6567 48.522 11.0533 48.522 9.90854V2.46764C47.7805 1.14076 46.7724 1.14076 46.2715 1.10173V0.802536H50.818L55.8458 11.6062L59.846 0.802536H63.8721V1.10173C63.0071 1.10173 62.3241 1.58305 62.3241 2.8709V12.5688C62.3241 14.0778 63.1502 14.6632 64.0152 14.6632V14.6567Z" fill="#FFFEFC"/>
<path d="M82.8061 0.796005V1.0952C81.941 1.0952 81.2386 1.53749 81.2386 2.78632V12.6598C81.2386 14.0257 81.9606 14.6501 82.8061 14.6501V14.9493H77.1929V14.6501C78.058 14.6501 78.7604 14.0257 78.7604 12.6598V2.78632C78.7604 1.53749 78.0775 1.0952 77.1929 1.0952V0.796005H82.8061Z" fill="#FFFEFC"/>
<path d="M106.677 10.6761V14.9624H95.9578V14.6632C96.8034 14.6632 97.083 13.7786 97.083 12.4127V3.26118C97.083 2.01236 96.8424 1.10826 95.9578 1.10826V0.809067H106.417V4.52952H106.111C105.773 1.12778 101.304 1.10826 100.478 1.10826H99.5742V7.66459H100.582C100.862 7.66459 103.457 7.66459 103.62 5.61574H103.919V10.0387H103.62C103.457 7.97029 100.843 7.97029 100.582 7.97029H99.5742V14.6697H100.4C101.285 14.6697 105.727 14.7087 106.371 10.6891H106.677V10.6761Z" fill="#FFFEFC"/>
<path d="M135.016 12.6208C135.016 14.2534 133.813 15.0144 132.701 15.138C132.701 15.138 130.71 15.3201 129.904 14.1298L128.778 12.4842C128.011 14.7803 123.894 16.4844 121.877 13.6875C119.868 10.9362 122.502 8.71826 124.089 7.79465L125.097 7.18975L124.03 5.5832C122.138 2.96847 123.406 0.451309 125.656 0.0740605C127.003 -0.166598 127.952 0.19764 128.57 0.900103C129.357 1.82371 130.242 4.19778 127.185 6.37021L129.722 10.1297C130.483 8.43858 131.51 8.06133 132.037 7.93775C132.46 7.84018 133.026 7.87921 133.384 8.17841C133.865 8.56216 133.969 9.30365 133.507 9.80448C133.104 10.2858 132.362 10.3704 131.855 9.94757C131.614 9.72643 131.491 9.48577 131.471 9.16055C131.471 8.73778 130.385 9.05649 129.884 10.3638L131.471 12.6599C132.096 13.5835 133.143 13.5835 133.143 13.5835C133.845 13.5835 134.554 13.3623 134.71 12.6208H135.01H135.016ZM128.557 12.1785L125.279 7.44992L124.271 8.09385C123.146 8.90038 122.359 10.8907 123.926 12.842C125.012 14.1884 127.569 14.2924 128.551 12.1785H128.557ZM125.565 3.95712L127.016 6.09053C129.65 4.36039 129.188 2.22698 128.304 1.12125C127.718 0.535866 126.879 0.275693 126.151 0.535865C125.104 0.900105 124.603 2.52618 125.565 3.95712Z" fill="#FFFEFC"/>
<path d="M161.625 14.9559H156.454V14.6567C157.781 14.6567 157.157 13.0111 156.916 12.4452L156.272 10.8387H151.283C151.004 11.6452 149.937 14.7803 152.929 14.6632V14.9624H148.2V14.6632C148.844 14.6437 149.345 14.6632 151.199 9.98012L154.64 0.809067H154.9C158.601 9.68092 159.947 13.1152 159.947 13.1152C160.61 14.7217 161.072 14.6242 161.619 14.6632V14.9624L161.625 14.9559ZM156.155 10.533L153.664 4.25634L151.348 10.533H156.155Z" fill="#FFFEFC"/>
<path d="M189.886 0.796026V1.09522C186.907 1.07571 186.972 4.91974 186.972 5.84335V14.9559H186.107L177.437 3.91158V9.86301C177.437 10.7671 177.418 14.6502 180.13 14.6502V14.9494H174.178V14.6502C177.138 14.6502 177.138 10.7671 177.138 9.86301V3.58636L176.331 2.55869C175.043 0.952128 174.458 1.13425 173.938 1.08872V0.78952H178.263L186.673 11.3915V5.84335C186.673 4.91974 186.673 1.07571 183.98 1.09522V0.796026H189.893H189.886Z" fill="#FFFEFC"/>
<path d="M218.245 0.796026V1.09522C215.266 1.07571 215.331 4.91974 215.331 5.84335V14.9559H214.466L205.796 3.91158V9.86301C205.796 10.7671 205.776 14.6502 208.489 14.6502V14.9494H202.537V14.6502C205.497 14.6502 205.497 10.7671 205.497 9.86301V3.58636L204.69 2.55869C203.402 0.952128 202.817 1.13425 202.296 1.08872V0.78952H206.622L215.032 11.3915V5.84335C215.032 4.91974 215.032 1.07571 212.339 1.09522V0.796026H218.251H218.245Z" fill="#FFFEFC"/>
<path d="M237.029 0.796005V1.0952C236.164 1.0952 235.462 1.53749 235.462 2.78632V12.6598C235.462 14.0257 236.184 14.6501 237.029 14.6501V14.9493H231.416V14.6501C232.281 14.6501 232.984 14.0257 232.984 12.6598V2.78632C232.984 1.53749 232.301 1.0952 231.416 1.0952V0.796005H237.029Z" fill="#FFFEFC"/>
<path d="M260.9 10.6761V14.9624H250.181V14.6632C251.027 14.6632 251.306 13.7786 251.306 12.4127V3.26118C251.306 2.01236 251.066 1.10826 250.181 1.10826V0.809067H260.64V4.52952H260.334C259.996 1.12778 255.528 1.10826 254.702 1.10826H253.797V7.66459H254.806C255.085 7.66459 257.681 7.66459 257.843 5.61574H258.142V10.0387H257.843C257.681 7.97029 255.066 7.97029 254.806 7.97029H253.797V14.6697H254.623C255.508 14.6697 259.957 14.7087 260.594 10.6891H260.9V10.6761Z" fill="#FFFEFC"/>
</svg>
