<svg width="30" height="20" viewBox="0 0 30 20" fill="none" xmlns="http://www.w3.org/2000/svg">
<path d="M28.3882 0H1.59196C1.01416 0 0.53418 0.479978 0.53418 1.05778V5.44359L29.4459 5.44491V1.0591C29.4459 0.481301 28.966 0.00132223 28.3882 0.00132223V0Z" fill="#DA6353"/>
<path d="M2.64974 8.26526H0.53418V18.9422C0.53418 19.52 1.01416 20 1.59196 20H28.3882C28.966 20 29.4459 19.52 29.4459 18.9422V8.26526H2.64974ZM7.12017 14.9227C6.92316 15.1197 6.65475 15.2334 6.37313 15.2334C6.10471 15.2334 5.82308 15.121 5.62608 14.9227C5.42907 14.7257 5.31536 14.4572 5.31536 14.1756C5.31536 14.0341 5.34312 13.894 5.39998 13.7671C5.45683 13.6401 5.52691 13.5277 5.62608 13.4286C6.02144 13.0332 6.72617 13.0332 7.12153 13.4286C7.22069 13.5277 7.30532 13.6401 7.36085 13.7671C7.41771 13.894 7.44547 14.0355 7.44547 14.1756C7.44547 14.444 7.31854 14.7257 7.12153 14.9227H7.12017ZM23.607 15.2334H19.319C18.7412 15.2334 18.2612 14.7534 18.2612 14.1756C18.2612 13.5833 18.7412 13.1178 19.319 13.1178H23.607C24.1848 13.1178 24.6648 13.5833 24.6648 14.1756C24.6648 14.7534 24.1848 15.2334 23.607 15.2334Z" fill="#DA6353"/>
</svg>
