<svg width="29" height="20" viewBox="0 0 29 20" fill="none" xmlns="http://www.w3.org/2000/svg">
<path d="M27.854 0H1.05778C0.479978 0 0 0.479978 0 1.05778V5.44359L28.9118 5.44491V1.0591C28.9118 0.481301 28.4318 0.00132223 27.854 0.00132223V0Z" fill="#FFFEFC"/>
<path d="M2.11556 8.26524H0V18.9422C0 19.52 0.479978 20 1.05778 20H27.854C28.4318 20 28.9118 19.52 28.9118 18.9422V8.26524H2.11556ZM6.58599 14.9227C6.38898 15.1197 6.12057 15.2334 5.83895 15.2334C5.57053 15.2334 5.2889 15.121 5.0919 14.9227C4.89489 14.7256 4.78118 14.4572 4.78118 14.1756C4.78118 14.0341 4.80894 13.894 4.8658 13.7671C4.92265 13.6401 4.99273 13.5277 5.0919 13.4286C5.48726 13.0332 6.19199 13.0332 6.58735 13.4286C6.68651 13.5277 6.77114 13.6401 6.82667 13.7671C6.88353 13.894 6.91129 14.0355 6.91129 14.1756C6.91129 14.444 6.78436 14.7257 6.58735 14.9227H6.58599ZM23.0728 15.2334H18.7848C18.207 15.2334 17.727 14.7534 17.727 14.1756C17.727 13.5832 18.207 13.1178 18.7848 13.1178H23.0728C23.6506 13.1178 24.1306 13.5832 24.1306 14.1756C24.1306 14.7534 23.6506 15.2334 23.0728 15.2334Z" fill="#FFFEFC"/>
</svg>
