<svg width="21" height="20" viewBox="0 0 21 20" fill="none" xmlns="http://www.w3.org/2000/svg">
<path d="M7.16667 2.5H4.66667C4.22464 2.5 3.80072 2.67559 3.48816 2.98816C3.17559 3.30072 3 3.72464 3 4.16667V6.66667M18 6.66667V4.16667C18 3.72464 17.8244 3.30072 17.5118 2.98816C17.1993 2.67559 16.7754 2.5 16.3333 2.5H13.8333M13.8333 17.5H16.3333C16.7754 17.5 17.1993 17.3244 17.5118 17.0118C17.8244 16.6993 18 16.2754 18 15.8333V13.3333M3 13.3333V15.8333C3 16.2754 3.17559 16.6993 3.48816 17.0118C3.80072 17.3244 4.22464 17.5 4.66667 17.5H7.16667" stroke="#DA6353" stroke-width="2" stroke-linecap="round" stroke-linejoin="round"/>
</svg>
