<svg width="74" height="60" viewBox="0 0 74 60" fill="none" xmlns="http://www.w3.org/2000/svg">
<path d="M30 0.108696C39.1304 0.108696 47.2826 4.23913 52.7174 10.6522L48.1522 14.5652C43.8043 9.45652 37.2826 6.19565 30 6.19565C16.7391 6.19565 6.08696 16.8478 6.08696 30.1087C6.08696 43.3696 16.7391 54.0217 30 54.0217C45 54.0217 56.1957 40.4348 53.587 25.8696L58.6957 21.413C64.4565 40.4348 50.2174 60 30 60C13.4783 60 0 46.5217 0 30C0 13.4783 13.4783 0 30 0V0.108696ZM24.5652 20.5435L32.7174 30.8696L68.6957 0L73.587 5.76087L31.6304 41.7391L18.587 25.3261L24.4565 20.6522L24.5652 20.5435Z" fill="#6FDD65"/>
</svg>
