<svg width="20" height="20" viewBox="0 0 20 20" fill="none" xmlns="http://www.w3.org/2000/svg">
<g clip-path="url(#clip0_657_1148)">
<path d="M2.5 4.99994H4.16667H17.5" stroke="#DA6353" stroke-width="2" stroke-linecap="round" stroke-linejoin="round"/>
<path d="M15.8334 4.99994V16.6666C15.8334 17.1086 15.6578 17.5326 15.3453 17.8451C15.0327 18.1577 14.6088 18.3333 14.1667 18.3333H5.83341C5.39139 18.3333 4.96746 18.1577 4.6549 17.8451C4.34234 17.5326 4.16675 17.1086 4.16675 16.6666V4.99994M6.66675 4.99994V3.33327C6.66675 2.89124 6.84234 2.46732 7.1549 2.15476C7.46746 1.8422 7.89139 1.6666 8.33341 1.6666H11.6667C12.1088 1.6666 12.5327 1.8422 12.8453 2.15476C13.1578 2.46732 13.3334 2.89124 13.3334 3.33327V4.99994" stroke="#DA6353" stroke-width="2" stroke-linecap="round" stroke-linejoin="round"/>
<path d="M8.33325 9.1666V14.1666" stroke="#DA6353" stroke-width="2" stroke-linecap="round" stroke-linejoin="round"/>
<path d="M11.6667 9.1666V14.1666" stroke="#DA6353" stroke-width="2" stroke-linecap="round" stroke-linejoin="round"/>
</g>
<defs>
<clipPath id="clip0_657_1148">
<rect width="20" height="20" fill="white"/>
</clipPath>
</defs>
</svg>
